# xmcd
#
# Track frame offsets:
#	150
#	11605
#	24896
#	38969
#	52237
#	66490
#	79890
#	94650
#	108933
#	122091
#	134715
#	149177
#
# Disc length: 2188 seconds
#
# Revision: 0
# Processed by: cddbd v1.5.1PL2 Copyright (c) Steve Scherf et al.
# Submitted via: EasyCDDAExtractor 9.0.0.1
#
DISCID=b2088a0c
DTITLE=Μαρίκα Νίνου - 12 Μεγάλες Επιτυχίες
DYEAR=1900
DGENRE=
TTITLE0=Στο πείσμα σου παντρεύομαι
TTITLE1=Τι όμορφη που είσαι όταν κλαις
TTITLE2=Γλυκοχαράζει ο Αυγερινός
TTITLE3=Καβουράκια
TTITLE4=Μας ζηλεύουνε
TTITLE5=Είσαι μια κότα παρδαλή
TTITLE6=Είσαι η γυναίκα που μου αρέσει
TTITLE7=Κάτω στο γιαλό
TTITLE8=Πάμε στα μπουζούκια
TTITLE9=Δεν με νοιάζει - Δεν σε νοιάζει
TTITLE10=Ζαϊρα
TTITLE11=Ξενιτιά (Με γέρασε η ξενιτιά)
EXTD=
EXTT0=
EXTT1=
EXTT2=
EXTT3=
EXTT4=
EXTT5=
EXTT6=
EXTT7=
EXTT8=
EXTT9=
EXTT10=
EXTT11=
PLAYORDER=
